<svg id="Capa_1" data-name="Capa 1" xmlns="http://www.w3.org/2000/svg" viewBox="0 0 1080 1350"><defs><style>.cls-1{fill:#2563ea;}.cls-2{fill:#1d2733;}</style></defs><rect class="cls-1" x="432.71" y="516.58" width="400.38" height="437.42"/><path class="cls-2" d="M603.92,769H304.71c-31,0-56.31-28.73-56.31-64V369c0-35.31,25.26-64,56.31-64H423.82c31.05,0,56.32,28.72,56.32,64v43.13H433.28V369c0-5.93-4.24-10.75-9.46-10.75H304.71c-5.21,0-9.46,4.82-9.46,10.75V705c0,5.93,4.25,10.76,9.46,10.76H603.92c5.22,0,9.46-4.83,9.46-10.76V578.82c0-5.93-4.24-10.75-9.46-10.75H477.75V680.9H430.89V514.79h173c31.06,0,56.32,28.73,56.32,64V705C660.24,740.28,635,769,603.92,769Z"/></svg>