<svg width="1366" height="768" viewBox="0 0 1366 768" fill="none" xmlns="http://www.w3.org/2000/svg"><g clip-path="url(#clip0_1219_18689)"><rect width="1366" height="768" fill="#050E1A"/><g style="mix-blend-mode:difference" filter="url(#filter0_f_1219_18689)"><path d="M1063.38 -40.5475C1077.85 -74.7306 1087.43 -113.315 1077.12 -147.94C1064.97 -188.697 1027.63 -215.452 988.693 -229.544C948.296 -244.173 902.306 -247.959 861.3 -231.177C834.304 -220.126 810.85 -200.865 784.242 -188.72C721.195 -159.951 648.69 -174.847 588.355 -204.035C555.84 -219.767 524.937 -239.555 490.037 -249.212C455.147 -258.864 414.019 -256.613 385.35 -231.875C350.322 -201.659 344.722 -147.553 356.185 -103.573C368.301 -57.0695 396.437 -15.8872 434.54 11.1193C473.732 38.8942 521.954 51.4584 561.174 79.1809C591.932 100.93 616.368 131.81 630.979 167.412C641.657 193.44 647.455 222.366 664.077 244.629C683.897 271.171 717.188 283.502 749.753 282.69C787.412 281.756 821.303 262.339 850.099 237.255C869.77 220.118 882.667 198.315 898.97 178.169C925.24 145.711 956.862 118.043 983.644 85.9049C1015.58 47.5923 1043.82 5.64804 1063.37 -40.5371L1063.38 -40.5475Z" fill="url(#paint0_linear_1219_18689)"/></g><g style="mix-blend-mode:difference" filter="url(#filter1_f_1219_18689)"><path d="M-164.014 835.761C-176.614 870.678 -184.092 909.726 -171.914 943.74C-157.576 983.779 -118.839 1008.47 -79.1984 1020.43C-38.0679 1032.85 8.05906 1034.14 48.0955 1015.16C74.4525 1002.66 96.8289 982.158 122.74 968.589C184.135 936.445 257.341 947.391 319.169 973.265C352.488 987.212 384.418 1005.3 419.79 1013.05C455.152 1020.8 496.098 1016.32 523.384 990.063C556.723 957.993 559.383 903.663 545.553 860.369C530.934 814.591 500.608 774.994 461.098 750.092C420.458 724.482 371.626 714.549 330.962 688.993C299.07 668.942 272.997 639.432 256.477 604.675C244.405 579.263 237.047 550.694 219.243 529.364C198.014 503.936 164.103 493.427 131.631 496.002C94.0773 498.976 61.2888 520.202 33.8942 546.809C15.181 564.987 3.48477 587.457 -11.7029 608.456C-36.1752 642.29 -66.2516 671.632 -91.2521 705.174C-121.063 745.161 -146.988 788.574 -164.009 835.751L-164.014 835.761Z" fill="url(#paint1_linear_1219_18689)"/></g><g style="mix-blend-mode:difference" filter="url(#filter2_f_1219_18689)"><path d="M1644.31 879.272C1632.64 896.771 1617.25 912.389 1598.53 921.611C1528.31 956.217 1449.91 890.35 1375.24 911.085C1322.63 925.695 1289.11 977.732 1253.93 1020.9C1210.68 1073.98 1152.14 1121.25 1086.01 1126.18C1052.62 1128.67 1019.77 1120 990.679 1105.44C932.919 1076.54 887.768 1021.77 877.948 956.538C868.128 891.31 897.578 817.216 954.84 779.952C1001.96 749.289 1060.46 745.582 1110.05 719.572C1140.62 703.548 1167.15 679.073 1185.8 649.761C1205.2 619.257 1215.76 584.494 1227.82 550.713C1239.89 516.945 1254.32 482.718 1279.38 456.562C1304.45 430.418 1342.54 413.945 1375.31 424.079C1406.96 433.861 1426.43 465.823 1432.81 498.746C1437.38 522.32 1436.8 547.944 1448.31 568.561C1460.88 591.092 1485.86 603.512 1511.11 609.692C1536.36 615.873 1562.92 616.972 1588.18 623.089C1609.42 628.229 1630.71 637.602 1644.72 654.533C1656.95 669.346 1673.62 681.447 1678.33 749.543C1683.05 817.866 1658.38 858.187 1644.3 879.286L1644.31 879.272Z" fill="url(#paint2_linear_1219_18689)"/></g></g><defs><filter id="filter0_f_1219_18689" x="150.809" y="-454.519" width="1130.63" height="937.246" filterUnits="userSpaceOnUse" color-interpolation-filters="sRGB"><feFlood flood-opacity="0" result="BackgroundImageFix"/><feBlend mode="normal" in="SourceGraphic" in2="BackgroundImageFix" result="shape"/><feGaussianBlur stdDeviation="100" result="effect1_foregroundBlur_1219_18689"/></filter><filter id="filter1_f_1219_18689" x="-378.103" y="295.624" width="1131.52" height="933.994" filterUnits="userSpaceOnUse" color-interpolation-filters="sRGB"><feFlood flood-opacity="0" result="BackgroundImageFix"/><feBlend mode="normal" in="SourceGraphic" in2="BackgroundImageFix" result="shape"/><feGaussianBlur stdDeviation="100" result="effect1_foregroundBlur_1219_18689"/></filter><filter id="filter2_f_1219_18689" x="676.083" y="221.055" width="1202.84" height="1105.55" filterUnits="userSpaceOnUse" color-interpolation-filters="sRGB"><feFlood flood-opacity="0" result="BackgroundImageFix"/><feBlend mode="normal" in="SourceGraphic" in2="BackgroundImageFix" result="shape"/><feGaussianBlur stdDeviation="100" result="effect1_foregroundBlur_1219_18689"/></filter><linearGradient id="paint0_linear_1219_18689" x1="374.417" y1="-224.453" x2="992.48" y2="98.1221" gradientUnits="userSpaceOnUse"><stop stop-color="#301B52"/><stop offset="1" stop-color="#002952"/></linearGradient><linearGradient id="paint1_linear_1219_18689" x1="533.899" y1="982.059" x2="-100.738" y2="693.453" gradientUnits="userSpaceOnUse"><stop stop-color="#301B52"/><stop offset="1" stop-color="#002952"/></linearGradient><linearGradient id="paint2_linear_1219_18689" x1="1676.17" y1="726.325" x2="862.666" y2="810.424" gradientUnits="userSpaceOnUse"><stop stop-color="#002952"/><stop offset="1" stop-color="#301B52"/></linearGradient><clipPath id="clip0_1219_18689"><rect width="1366" height="768" fill="white"/></clipPath></defs></svg>