<?xml version="1.0" encoding="UTF-8"?>
<svg width="127px" height="133px" viewBox="0 0 127 133" version="1.1" xmlns="http://www.w3.org/2000/svg" xmlns:xlink="http://www.w3.org/1999/xlink">
    <g id="Page-1" stroke="none" stroke-width="1" fill="none" fill-rule="evenodd">
        <g id="Desktop-HD-Copy" transform="translate(-801.000000, -2775.000000)" fill="#000000">
            <g id="Group-3" transform="translate(794.000000, 2744.000000)">
                <g id="logo">
                    <polygon id="Rectangle" transform="translate(70.487997, 59.594398) rotate(45.000000) translate(-70.487997, -59.594398) " points="50.8223177 39.9287181 112.567196 17.5151993 90.2449763 79.3513768 28.4087989 101.673596"></polygon>
                    <g id="Group-2" transform="translate(0.000000, 62.194246)">
                        <path d="M11.6881948,15.1593245 L67.0266669,15.1593245 L67.0266669,15.1593245 L75.1458216,32.570908 L8.32831514,32.5300698 L5.06996295,25.5569796 C3.36200264,21.9018311 4.94051058,17.5541724 8.5956591,15.8462121 C9.56385181,15.3937996 10.6195161,15.1593245 11.6881948,15.1593245 Z" id="Rectangle" transform="translate(37.678609, 23.865116) rotate(25.000000) translate(-37.678609, -23.865116) "></path>
                        <polygon id="Rectangle" transform="translate(15.431784, 39.534066) rotate(90.000000) translate(-15.431784, -39.534066) " points="-2.40270512 31.5185233 42.0840675 31.5185233 36.0250026 47.5496079 -11.2204999 47.5496079"></polygon>
                        <path d="M0.218137863,68.8708088 L67.1142897,68.9880583 L75.1932968,86.3135448 L12.9293104,86.1486721 C10.1006075,86.1411818 7.53047865,84.5012954 6.33181941,81.9391025 L0.218137863,68.8708088 L0.218137863,68.8708088 Z" id="Rectangle" transform="translate(37.705717, 77.592177) rotate(25.000000) translate(-37.705717, -77.592177) "></path>
                    </g>
                    <g id="Group-2" transform="translate(102.335195, 113.194246) scale(-1, 1) translate(-102.335195, -113.194246) translate(64.335195, 62.194246)">
                        <path d="M11.4012748,15.1593245 L67.0266669,15.1593245 L67.0266669,15.1593245 L75.1458216,32.570908 L8.32831514,32.5300698 L4.94849878,25.2970382 C3.28323749,21.7332684 4.82228273,17.4943012 8.38605254,15.8290399 C9.33004042,15.3879377 10.3593131,15.1593245 11.4012748,15.1593245 Z" id="Rectangle" transform="translate(37.678609, 23.865116) rotate(25.000000) translate(-37.678609, -23.865116) "></path>
                        <polygon id="Rectangle" transform="translate(15.417004, 40.493959) rotate(90.000000) translate(-15.417004, -40.493959) " points="-3.03728854 32.4636376 41.875818 32.4636376 37.0052824 48.5242809 -11.0418091 48.4947222"></polygon>
                        <polygon id="Rectangle" transform="translate(59.937390, 60.879952) rotate(90.000000) translate(-59.937390, -60.879952) " points="32.8641074 52.8644099 91.4386897 52.8644099 86.8327258 68.8954945 28.4360905 68.8954945"></polygon>
                        <path d="M0.218137863,68.8708088 L67.1142897,68.9880583 L75.1932968,86.3135448 L12.8134632,86.1483654 C10.0554779,86.1410623 7.54960227,84.542173 6.3809095,82.044035 L0.218137863,68.8708088 L0.218137863,68.8708088 Z" id="Rectangle" transform="translate(37.705717, 77.592177) rotate(25.000000) translate(-37.705717, -77.592177) "></path>
                    </g>
                </g>
            </g>
        </g>
    </g>
</svg>