<?xml version="1.0" encoding="UTF-8" standalone="no"?>
<svg xmlns="http://www.w3.org/2000/svg" x="0" y="0" width="1000" height="1000" viewBox="0 0 500 500" fill="#0075CF">
  <path d="M 383 155 L 248 77 L 248 119 L 348 176 Z"/>
  <path d="M 248 77 L 113 155 L 185 155 L 248 119 Z"/>
  <path d="M 113 155 L 248 233 L 248 191 L 185 155Z"/>
  <path d="M 248 233 L 328 186 L 265 181 L 248 191Z"/>
  <path d="M 328 186 L 248 140 L 222 155 L 265 181Z"/>
  
  <path d="M 103 172 L 103 327 L 139 348 L 139 233 Z"/>
  <path d="M 139 306 L 203 342 L 203 301 L 139 265 Z"/>
  <path d="M 203 384 L 239 405 L 239 249 L 203 270 Z"/>
  <path d="M 103 172 L 139 233 L 203 270 L 239 249 Z"/>
  
  <path d="M 258 250 L 258 405 L 294 384 L 294 291 L 285 234 Z"/>
  <path d="M 294 291 L 373 337 L 357 275 L 285 234 Z"/>
  <path d="M 373 337 L 393 326 L 393 171 L 357 192 L 357 275 Z"/>
</svg>