<svg id="Capa_1" data-name="Capa 1" xmlns="http://www.w3.org/2000/svg" viewBox="0 0 1080 1350"><defs><style>.cls-1{fill:#2563ea;}.cls-2{fill:#fff;}</style></defs><rect class="cls-1" x="446.58" y="516.58" width="400.38" height="437.42"/><path class="cls-2" d="M617.79,769H318.58c-31.05,0-56.31-28.73-56.31-64V369c0-35.31,25.26-64,56.31-64H437.7c31.05,0,56.31,28.72,56.31,64v43.13H447.15V369c0-5.93-4.24-10.75-9.45-10.75H318.58c-5.21,0-9.46,4.82-9.46,10.75V705c0,5.93,4.25,10.76,9.46,10.76H617.79c5.22,0,9.46-4.83,9.46-10.76V578.82c0-5.93-4.24-10.75-9.46-10.75H491.62V680.9H444.76V514.79h173c31.06,0,56.32,28.73,56.32,64V705C674.11,740.28,648.85,769,617.79,769Z"/></svg>