<?xml version="1.0" encoding="UTF-8"?>
<svg xmlns="http://www.w3.org/2000/svg" xmlns:xlink="http://www.w3.org/1999/xlink" width="24px" height="24px" viewBox="0 0 24 24" version="1.1">
<g id="surface1">
<path style=" stroke:none;fill-rule:nonzero;fill:rgb(0%,0%,0%);fill-opacity:1;" d="M 1.121094 0.976562 L 5.300781 0.976562 L 5.300781 5.15625 L 1.121094 5.15625 Z M 1.121094 0.976562 "/>
<path style=" stroke:none;fill-rule:nonzero;fill:rgb(0%,0%,0%);fill-opacity:1;" d="M 6.964844 0.976562 L 11.144531 0.976562 L 11.144531 5.15625 L 6.964844 5.15625 Z M 6.964844 0.976562 "/>
<path style=" stroke:none;fill-rule:nonzero;fill:rgb(0%,0%,0%);fill-opacity:1;" d="M 1.121094 6.929688 L 5.300781 6.929688 L 5.300781 11.109375 L 1.121094 11.109375 Z M 1.121094 6.929688 "/>
<path style=" stroke:none;fill-rule:nonzero;fill:rgb(0%,0%,0%);fill-opacity:1;" d="M 6.964844 6.929688 L 11.144531 6.929688 L 11.144531 11.109375 L 6.964844 11.109375 Z M 6.964844 6.929688 "/>
<path style=" stroke:none;fill-rule:nonzero;fill:rgb(0%,0%,0%);fill-opacity:1;" d="M 12.828125 0.996094 L 17.007812 0.996094 L 17.007812 5.175781 L 12.828125 5.175781 Z M 12.828125 0.996094 "/>
<path style=" stroke:none;fill-rule:nonzero;fill:rgb(0%,0%,0%);fill-opacity:1;" d="M 18.671875 0.996094 L 22.851562 0.996094 L 22.851562 5.175781 L 18.671875 5.175781 Z M 18.671875 0.996094 "/>
<path style=" stroke:none;fill-rule:nonzero;fill:rgb(0%,0%,0%);fill-opacity:1;" d="M 12.828125 6.945312 L 17.007812 6.945312 L 17.007812 11.128906 L 12.828125 11.128906 Z M 12.828125 6.945312 "/>
<path style=" stroke:none;fill-rule:nonzero;fill:rgb(0%,0%,0%);fill-opacity:1;" d="M 18.671875 6.945312 L 22.851562 6.945312 L 22.851562 11.128906 L 18.671875 11.128906 Z M 18.671875 6.945312 "/>
<path style=" stroke:none;fill-rule:nonzero;fill:rgb(0%,0%,0%);fill-opacity:1;" d="M 1.121094 12.898438 L 5.300781 12.898438 L 5.300781 17.078125 L 1.121094 17.078125 Z M 1.121094 12.898438 "/>
<path style=" stroke:none;fill-rule:nonzero;fill:rgb(0%,0%,0%);fill-opacity:1;" d="M 6.964844 12.898438 L 11.144531 12.898438 L 11.144531 17.078125 L 6.964844 17.078125 Z M 6.964844 12.898438 "/>
<path style=" stroke:none;fill-rule:nonzero;fill:rgb(0%,0%,0%);fill-opacity:1;" d="M 1.121094 18.851562 L 5.300781 18.851562 L 5.300781 23.03125 L 1.121094 23.03125 Z M 1.121094 18.851562 "/>
<path style=" stroke:none;fill-rule:nonzero;fill:rgb(0%,0%,0%);fill-opacity:1;" d="M 6.964844 18.851562 L 11.144531 18.851562 L 11.144531 23.03125 L 6.964844 23.03125 Z M 6.964844 18.851562 "/>
<path style=" stroke:none;fill-rule:nonzero;fill:rgb(0%,0%,0%);fill-opacity:1;" d="M 12.828125 12.898438 L 17.007812 12.898438 L 17.007812 17.078125 L 12.828125 17.078125 Z M 12.828125 12.898438 "/>
<path style=" stroke:none;fill-rule:nonzero;fill:rgb(0%,0%,0%);fill-opacity:1;" d="M 18.671875 12.898438 L 22.851562 12.898438 L 22.851562 17.078125 L 18.671875 17.078125 Z M 18.671875 12.898438 "/>
<path style=" stroke:none;fill-rule:nonzero;fill:rgb(0%,0%,0%);fill-opacity:1;" d="M 12.828125 18.851562 L 17.007812 18.851562 L 17.007812 23.03125 L 12.828125 23.03125 Z M 12.828125 18.851562 "/>
<path style=" stroke:none;fill-rule:nonzero;fill:rgb(0%,0%,0%);fill-opacity:1;" d="M 18.671875 18.851562 L 22.851562 18.851562 L 22.851562 23.03125 L 18.671875 23.03125 Z M 18.671875 18.851562 "/>
</g>
</svg>
